<svg width="50" height="53" viewBox="0 0 50 53" fill="none" xmlns="http://www.w3.org/2000/svg">
<path fill-rule="evenodd" clip-rule="evenodd" d="M13.2641 22.781C12.9202 23.9806 12.7609 25.2363 12.8083 26.5001C12.7609 27.764 12.9202 29.0197 13.2641 30.2192L9.4218 26.5001L13.2641 22.781ZM14.4857 33.057L14.4857 37.847H19.1897L18.6962 37.2659C16.9304 36.2364 15.4969 34.7686 14.4857 33.057ZM14.4857 38.847H20.039L24.344 43.9161L18.3409 50.9845C17.9253 51.474 17.3155 51.7561 16.6734 51.7561C15.4651 51.7561 14.4857 50.7766 14.4857 49.5684V38.847ZM19.1031 51.6319L24.9999 44.6885L30.8967 51.6319C31.5024 52.345 32.3908 52.7561 33.3265 52.7561C35.087 52.7561 36.5142 51.3289 36.5142 49.5684V38.847H46.3719C48.2494 38.847 49.7714 37.325 49.7714 35.4476C49.7714 34.5268 49.3978 33.6454 48.7362 33.005L42.0159 26.5001L48.7362 19.9952C49.3978 19.3548 49.7714 18.4734 49.7714 17.5526C49.7714 15.6752 48.2494 14.1532 46.3719 14.1532L36.5142 14.1532V3.43188C36.5142 1.67134 35.087 0.244141 33.3265 0.244141C32.3908 0.244141 31.5024 0.655209 30.8967 1.36838L24.9999 8.31176L19.1031 1.36838C18.4975 0.655209 17.6091 0.244141 16.6734 0.244141C14.9129 0.244141 13.4857 1.67134 13.4857 3.43188V14.1532L3.62794 14.1532C1.75049 14.1532 0.228519 15.6752 0.228518 17.5526C0.228518 18.4734 0.602046 19.3548 1.26366 19.9952L7.98397 26.5001L1.26365 33.005C0.602043 33.6454 0.228516 34.5268 0.228516 35.4476C0.228516 37.325 1.75049 38.847 3.62794 38.847H13.4857V49.5684C13.4857 51.3289 14.9129 52.7561 16.6734 52.7561C17.6091 52.7561 18.4975 52.345 19.1031 51.6319ZM14.4857 14.1532V3.43188C14.4857 2.22363 15.4651 1.24414 16.6734 1.24414C17.3155 1.24414 17.9253 1.52626 18.3409 2.0157L24.344 9.08417L20.039 14.1532L14.4857 14.1532ZM14.4857 15.1532L19.1897 15.1532L18.6962 15.7343C16.9304 16.7638 15.4969 18.2317 14.4857 19.9433V15.1532ZM13.4857 15.1532L3.62794 15.1532C2.30278 15.1532 1.22852 16.2275 1.22852 17.5526C1.22852 18.2026 1.49217 18.8247 1.95915 19.2767L8.70288 25.8043L13.4857 21.1748V15.1532ZM24.9999 9.85658L21.3509 14.1532H24.6195L24.6446 14.1533L24.6686 14.1532C24.7794 14.1532 24.8898 14.1548 24.9999 14.1578C25.11 14.1548 25.2205 14.1532 25.3313 14.1532L25.3555 14.1533L25.3804 14.1532H28.649L24.9999 9.85658ZM31.3037 15.7343L30.8102 15.1532L35.5142 15.1532V19.9433C34.503 18.2317 33.0695 16.7638 31.3037 15.7343ZM36.7358 30.2192C37.0797 29.0197 37.239 27.764 37.1916 26.5001C37.239 25.2363 37.0797 23.9806 36.7358 22.781L40.5781 26.5001L36.7358 30.2192ZM31.3037 37.2659C33.0695 36.2364 34.503 34.7686 35.5142 33.057V37.847H30.8102L31.3037 37.2659ZM25 38.8425C25.11 38.8455 25.2205 38.847 25.3313 38.847C25.3396 38.847 25.3479 38.847 25.3562 38.847C25.3643 38.847 25.3724 38.847 25.3804 38.847H28.649L24.9999 43.1437L21.3509 38.847H24.6195L24.6436 38.847L24.6686 38.847C24.7794 38.847 24.8899 38.8455 25 38.8425ZM29.9609 14.1532L25.6559 9.08417L31.659 2.0157C32.0746 1.52626 32.6844 1.24414 33.3265 1.24414C34.5347 1.24414 35.5142 2.22363 35.5142 3.43188V14.1532L29.9609 14.1532ZM35.5142 49.5684V38.847H29.9609L25.6559 43.9161L31.659 50.9845C32.0746 51.474 32.6844 51.7561 33.3265 51.7561C34.5347 51.7561 35.5142 50.7766 35.5142 49.5684ZM46.3719 37.847H36.5142V31.8254L41.297 27.196L48.0407 33.7235C48.5077 34.1755 48.7714 34.7977 48.7714 35.4476C48.7714 36.7728 47.6971 37.847 46.3719 37.847ZM36.5142 21.1748L41.297 25.8043L48.0407 19.2767C48.5077 18.8247 48.7714 18.2026 48.7714 17.5526C48.7714 16.2275 47.6971 15.1532 46.3719 15.1532L36.5142 15.1532V21.1748ZM14.4942 26.5001C14.7278 32.6269 19.6925 36.7318 24.9999 36.9549C30.3074 36.7318 35.2721 32.627 35.5056 26.5002C35.2722 20.3733 30.3074 16.2685 24.9999 16.0453C19.6925 16.2685 14.7277 20.3733 14.4942 26.5001ZM8.70288 27.196L1.95915 33.7235C1.49216 34.1755 1.22852 34.7977 1.22852 35.4476C1.22852 36.7728 2.30278 37.847 3.62794 37.847H13.4857L13.4857 31.8254L8.70288 27.196Z" fill="white"/>
<g filter="url(#filter0_f_703_1279)">
<ellipse cx="24.5" cy="27" rx="12.5" ry="14" fill="#CC5051"/>
</g>
<defs>
<filter id="filter0_f_703_1279" x="3" y="4" width="43" height="46" filterUnits="userSpaceOnUse" color-interpolation-filters="sRGB">
<feFlood flood-opacity="0" result="BackgroundImageFix"/>
<feBlend mode="normal" in="SourceGraphic" in2="BackgroundImageFix" result="shape"/>
<feGaussianBlur stdDeviation="4.5" result="effect1_foregroundBlur_703_1279"/>
</filter>
</defs>
</svg>
