<svg width="50" height="53" viewBox="0 0 50 53" fill="none" xmlns="http://www.w3.org/2000/svg">
<path fill-rule="evenodd" clip-rule="evenodd" d="M13.2642 22.7809C12.9203 23.9804 12.7609 25.2361 12.8083 26.5C12.7609 27.7638 12.9203 29.0196 13.2642 30.2191L9.42186 26.5L13.2642 22.7809ZM14.4857 33.0568L14.4857 37.8469H19.1897L18.6963 37.2658C16.9305 36.2363 15.497 34.7685 14.4857 33.0568ZM14.4857 38.8469H20.039L24.344 43.916L18.341 50.9844C17.9253 51.4739 17.3156 51.756 16.6735 51.756C15.4652 51.756 14.4857 50.7765 14.4857 49.5682V38.8469ZM19.1032 51.6317L25 44.6884L30.8968 51.6317C31.5025 52.3449 32.3909 52.756 33.3265 52.756C35.0871 52.756 36.5143 51.3288 36.5143 49.5682V38.8469H46.372C48.2495 38.8469 49.7714 37.3249 49.7714 35.4475C49.7714 34.5267 49.3979 33.6453 48.7363 33.0049L42.016 26.5L48.7363 19.9951C49.3979 19.3547 49.7714 18.4733 49.7714 17.5525C49.7714 15.6751 48.2495 14.1531 46.372 14.1531L36.5143 14.1531V3.43176C36.5143 1.67122 35.0871 0.244019 33.3265 0.244019C32.3909 0.244019 31.5025 0.655087 30.8968 1.36826L25 8.31164L19.1032 1.36826C18.4975 0.655087 17.6091 0.244019 16.6735 0.244019C14.9129 0.244019 13.4857 1.67122 13.4857 3.43176V14.1531L3.628 14.1531C1.75055 14.1531 0.22858 15.6751 0.228579 17.5525C0.228579 18.4733 0.602107 19.3547 1.26372 19.9951L7.98403 26.5L1.26371 33.0049C0.602104 33.6453 0.228577 34.5267 0.228577 35.4475C0.228577 37.3249 1.75055 38.8469 3.628 38.8469H13.4857V49.5682C13.4857 51.3288 14.9129 52.756 16.6735 52.756C17.6091 52.756 18.4975 52.3449 19.1032 51.6317ZM14.4857 14.1531V3.43176C14.4857 2.2235 15.4652 1.24402 16.6735 1.24402C17.3156 1.24402 17.9253 1.52613 18.341 2.01558L24.344 9.08405L20.039 14.1531L14.4857 14.1531ZM14.4857 15.1531L19.1898 15.1531L18.6963 15.7342C16.9305 16.7637 15.497 18.2315 14.4857 19.9432V15.1531ZM13.4857 15.1531L3.628 15.1531C2.30284 15.1531 1.22858 16.2274 1.22858 17.5525C1.22858 18.2024 1.49223 18.8246 1.95921 19.2766L8.70294 25.8041L13.4857 21.1747V15.1531ZM25 9.85646L21.351 14.1531H24.6195L24.6447 14.1531L24.6686 14.1531C24.7794 14.1531 24.8899 14.1546 25 14.1577C25.1101 14.1546 25.2206 14.1531 25.3314 14.1531L25.3556 14.1531L25.3805 14.1531H28.649L25 9.85646ZM31.3038 15.7342L30.8103 15.1531L35.5143 15.1531V19.9432C34.503 18.2315 33.0695 16.7637 31.3038 15.7342ZM36.7359 30.2191C37.0797 29.0196 37.2391 27.7639 37.1917 26.5C37.2391 25.2361 37.0797 23.9804 36.7358 22.7809L40.5782 26.5L36.7359 30.2191ZM31.3038 37.2658C33.0695 36.2363 34.503 34.7685 35.5143 33.0568V37.8469H30.8103L31.3038 37.2658ZM25 38.8423C25.1101 38.8454 25.2206 38.8469 25.3314 38.8469C25.3397 38.8469 25.348 38.8469 25.3563 38.8469C25.3644 38.8469 25.3724 38.8469 25.3805 38.8469H28.649L25 43.1435L21.351 38.8469H24.6195L24.6437 38.8469L24.6686 38.8469C24.7794 38.8469 24.8899 38.8454 25 38.8423ZM29.961 14.1531L25.656 9.08405L31.659 2.01558C32.0747 1.52613 32.6844 1.24402 33.3265 1.24402C34.5348 1.24402 35.5143 2.2235 35.5143 3.43176V14.1531L29.961 14.1531ZM35.5143 49.5682V38.8469H29.961L25.656 43.916L31.659 50.9844C32.0747 51.4739 32.6844 51.756 33.3265 51.756C34.5348 51.756 35.5143 50.7765 35.5143 49.5682ZM46.372 37.8469H36.5143V31.8253L41.2971 27.1959L48.0408 33.7234C48.5078 34.1754 48.7714 34.7975 48.7714 35.4475C48.7714 36.7726 47.6972 37.8469 46.372 37.8469ZM36.5143 21.1747L41.2971 25.8041L48.0408 19.2766C48.5078 18.8246 48.7714 18.2024 48.7714 17.5525C48.7714 16.2274 47.6972 15.1531 46.372 15.1531L36.5143 15.1531V21.1747ZM14.4943 26.5C14.7278 32.6268 19.6925 36.7317 25 36.9548C30.3075 36.7317 35.2722 32.6268 35.5057 26.5C35.2722 20.3732 30.3075 16.2683 25 16.0452C19.6925 16.2683 14.7278 20.3732 14.4943 26.5ZM8.70294 27.1959L1.95921 33.7234C1.49223 34.1754 1.22858 34.7975 1.22858 35.4475C1.22858 36.7726 2.30284 37.8469 3.628 37.8469H13.4857L13.4857 31.8253L8.70294 27.1959Z" fill="white"/>
<g filter="url(#filter0_f_3_36)">
<ellipse cx="24.5" cy="27" rx="12.5" ry="14" fill="#CC5051"/>
</g>
<defs>
<filter id="filter0_f_3_36" x="3" y="4" width="43" height="46" filterUnits="userSpaceOnUse" color-interpolation-filters="sRGB">
<feFlood flood-opacity="0" result="BackgroundImageFix"/>
<feBlend mode="normal" in="SourceGraphic" in2="BackgroundImageFix" result="shape"/>
<feGaussianBlur stdDeviation="4.5" result="effect1_foregroundBlur_3_36"/>
</filter>
</defs>
</svg>
